<!DOCTYPE svg PUBLIC "-//W3C//DTD SVG 20010904//EN" "http://www.w3.org/TR/2001/REC-SVG-20010904/DTD/svg10.dtd">
<svg version="1.0" xmlns="http://www.w3.org/2000/svg" width="205px" height="196px" viewBox="0 0 2050 1960" preserveAspectRatio="xMidYMid meet">
<g id="layer101" fill="#ffffff" stroke="none">
 <path d="M1276 1945 c-63 -16 -173 -71 -221 -110 l-30 -25 80 -79 80 -80 60 21 c85 29 230 35 329 14 159 -36 309 -144 370 -267 24 -50 25 -59 16 -109 -37 -200 -130 -333 -275 -396 l-62 -27 17 -31 c10 -17 26 -58 36 -91 10 -33 21 -64 25 -69 20 -24 173 121 227 217 65 113 93 260 72 367 -7 30 -15 118 -18 195 -7 129 -9 145 -38 205 -56 117 -164 201 -319 250 -92 29 -265 36 -349 15z"/>
 <path d="M415 1111 c-33 -9 -85 -30 -115 -46 -78 -42 -190 -156 -229 -232 -56 -111 -61 -154 -61 -510 l0 -323 140 0 140 0 0 333 c0 276 3 343 16 388 43 148 154 279 290 345 102 49 137 49 240 -2 58 -28 98 -57 151 -111 40 -40 75 -73 78 -73 3 0 39 24 81 53 l75 52 -33 28 c-46 39 -163 93 -228 106 -30 6 -152 10 -270 10 -171 -1 -227 -4 -275 -18z"/>
 <path d="M639 1040 l-74 -26 -3 -202 -2 -202 155 0 155 0 -2 201 -3 201 -76 28 -75 27 -75 -27z"/>
 <path d="M1304 885 c-23 -23 -32 -25 -114 -25 -73 0 -90 -3 -90 -15 0 -8 5 -15 10 -15 6 0 10 -13 10 -30 l0 -30 220 0 220 0 0 30 c0 17 5 30 10 30 6 0 10 7 10 15 0 12 -17 15 -89 15 -79 0 -90 2 -96 19 -5 16 -32 30 -58 31 -4 0 -19 -11 -33 -25z"/>
 <path d="M1904 762 c-34 -37 -84 -83 -113 -102 -44 -31 -51 -39 -51 -70 -2 -157 -113 -350 -258 -446 -65 -43 -168 -84 -214 -84 -84 0 -286 166 -342 281 -32 66 -56 150 -56 197 l0 32 -141 0 -142 0 7 -42 c32 -209 180 -387 383 -460 40 -15 96 -23 183 -28 69 -4 159 -15 200 -25 54 -12 99 -15 160 -12 145 10 252 57 351 156 112 112 163 241 162 411 -1 67 -7 114 -22 160 -35 110 -36 110 -107 32z"/>
 <path d="M1150 753 c0 -5 20 -75 45 -158 48 -162 64 -188 128 -200 42 -8 100 15 121 47 14 22 96 285 96 308 0 6 -75 10 -195 10 -107 0 -195 -3 -195 -7z"/>
 <path d="M1040 430 c0 -49 1 -50 30 -50 23 0 30 -4 30 -20 0 -16 7 -20 35 -20 28 0 35 -4 35 -20 0 -17 7 -20 40 -20 28 0 40 -4 40 -14 0 -27 50 -56 97 -56 33 0 50 6 68 25 14 13 25 29 25 35 0 5 19 10 41 10 36 0 41 2 36 20 -4 17 0 20 34 20 32 0 39 3 39 20 0 16 7 20 30 20 29 0 30 1 30 50 l0 50 -85 0 c-84 0 -85 0 -100 -30 -47 -92 -193 -92 -240 0 -15 30 -16 30 -100 30 l-85 0 0 -50z"/>
 <path d="M561 368 l-1 -108 -95 0 -95 0 0 -110 0 -110 283 0 282 1 -60 32 c-76 41 -190 149 -234 221 -18 31 -44 84 -57 119 l-23 62 0 -107z"/>
 <path d="M1040 252 c0 -15 126 -122 143 -122 4 0 7 29 7 65 l0 65 -75 0 c-41 0 -75 -4 -75 -8z"/>
 </g>

</svg>