<!DOCTYPE svg PUBLIC "-//W3C//DTD SVG 20010904//EN" "http://www.w3.org/TR/2001/REC-SVG-20010904/DTD/svg10.dtd">
<svg version="1.0" xmlns="http://www.w3.org/2000/svg" width="1109px" height="196px" viewBox="0 0 11090 1960" preserveAspectRatio="xMidYMid meet">
<g id="layer101" fill="#ffffff" stroke="none">
 <path d="M1276 1945 c-63 -16 -173 -71 -221 -110 l-30 -25 80 -79 80 -80 60 21 c85 29 230 35 329 14 159 -36 309 -144 370 -267 24 -50 25 -59 16 -109 -37 -200 -130 -333 -275 -396 l-62 -27 17 -31 c10 -17 26 -58 36 -91 10 -33 21 -64 25 -69 20 -24 173 121 227 217 65 113 93 260 72 367 -7 30 -15 118 -18 195 -7 129 -9 145 -38 205 -56 117 -164 201 -319 250 -92 29 -265 36 -349 15z"/>
 <path d="M9405 1901 c24 -69 72 -508 61 -562 -5 -26 -3 -29 18 -29 14 0 32 -3 42 -7 15 -6 16 -1 11 43 -4 27 -13 137 -22 244 -15 201 -21 234 -49 287 -15 30 -51 63 -68 63 -4 0 -1 -18 7 -39z"/>
 <path d="M2595 1695 c-47 -17 -71 -43 -85 -93 -14 -50 -13 -80 5 -139 27 -92 113 -149 240 -160 l75 -6 2 -56 c1 -31 2 -75 1 -98 -1 -38 1 -43 20 -43 12 0 32 -3 43 -6 21 -6 21 -4 13 43 -18 95 -51 449 -47 506 l4 57 -38 0 c-31 0 -38 -3 -38 -20 0 -25 -1 -25 -42 -1 -46 28 -105 34 -153 16z m165 -45 c26 -14 39 -60 49 -175 10 -125 2 -145 -63 -145 -142 0 -223 214 -115 304 33 28 93 35 129 16z"/>
 <path d="M3067 1696 c-52 -19 -73 -40 -93 -92 -44 -114 24 -263 134 -294 100 -27 202 15 202 85 0 40 -23 48 -148 52 l-117 3 -5 33 c-14 81 22 148 89 168 35 10 60 6 134 -26 29 -12 19 12 -15 39 -32 23 -96 46 -128 46 -8 -1 -32 -7 -53 -14z m161 -290 c15 -14 14 -18 -4 -43 -16 -21 -31 -29 -63 -31 -35 -3 -46 2 -71 27 -34 33 -38 57 -12 65 34 10 134 -2 150 -18z"/>
 <path d="M4528 1698 c-46 -12 -95 -66 -104 -113 -18 -96 23 -199 98 -248 70 -45 183 -45 247 -1 93 66 50 283 -68 344 -48 24 -124 32 -173 18z m169 -61 c74 -81 64 -250 -17 -292 -87 -45 -166 14 -184 137 -23 156 107 256 201 155z"/>
 <path d="M5220 1690 c-22 -22 -23 -28 -16 -124 3 -56 9 -129 12 -163 6 -60 6 -63 -15 -63 -12 0 -21 -6 -21 -15 0 -9 9 -15 24 -15 21 0 24 -6 29 -51 7 -60 4 -55 41 -65 l29 -7 -6 62 -7 61 40 0 c52 0 52 18 0 26 -30 5 -41 12 -45 28 -11 59 -25 238 -19 260 7 31 42 43 73 26 17 -8 21 -8 21 3 0 20 -39 44 -83 52 -28 6 -39 3 -57 -15z"/>
 <path d="M5527 1696 c-75 -27 -101 -71 -100 -166 0 -86 28 -149 82 -188 102 -74 261 -37 261 59 0 37 -22 43 -155 43 -55 1 -103 6 -107 11 -4 6 -8 33 -8 61 0 124 117 179 228 106 24 -16 25 -16 14 3 -34 65 -138 99 -215 71z m125 -272 c48 -8 59 -36 27 -70 -34 -36 -88 -33 -128 7 -48 48 -40 65 34 68 17 0 47 -2 67 -5z"/>
 <path d="M6166 1700 c-62 -19 -96 -76 -96 -158 0 -139 86 -224 240 -238 39 -4 73 -10 75 -14 3 -5 6 -48 7 -98 l2 -90 35 -5 c20 -2 38 -3 39 -1 2 1 -3 58 -12 126 -25 201 -39 375 -34 428 l5 50 -38 0 c-32 0 -39 -3 -39 -20 0 -25 -1 -25 -42 -1 -40 24 -103 33 -142 21z m159 -57 c27 -27 35 -60 42 -174 7 -127 2 -139 -61 -139 -44 0 -101 29 -126 64 -57 79 -50 193 15 244 34 27 106 30 130 5z"/>
 <path d="M6632 1700 c-126 -30 -153 -244 -43 -343 86 -77 233 -72 269 9 30 64 9 76 -136 81 l-117 3 -8 28 c-19 70 24 152 91 173 36 10 60 6 135 -26 29 -12 19 12 -15 39 -32 23 -98 47 -128 45 -8 -1 -30 -5 -48 -9z m117 -276 c47 -10 58 -38 27 -69 -36 -36 -88 -34 -127 4 -47 48 -37 67 37 70 17 0 46 -2 63 -5z"/>
 <path d="M7382 1699 c-146 -25 -210 -110 -199 -261 14 -206 191 -324 455 -303 l82 7 0 37 c0 49 -7 54 -39 32 -62 -43 -161 -53 -244 -25 -61 21 -129 95 -148 161 -18 63 -16 160 4 199 37 72 135 124 232 124 71 0 78 -12 83 -139 l5 -111 49 0 c48 0 50 1 44 23 -4 12 -12 72 -19 134 l-11 112 -46 5 c-102 12 -198 14 -248 5z"/>
 <path d="M7900 1703 c-80 -26 -86 -46 -70 -238 13 -151 13 -154 38 -160 14 -3 28 -2 32 2 4 4 2 64 -4 133 -14 145 -10 176 27 203 22 17 33 19 63 11 67 -17 92 -82 97 -256 l2 -86 35 -5 c19 -2 36 -3 38 -2 1 1 -5 66 -14 146 -8 79 -14 167 -12 196 l3 53 -32 0 c-30 0 -33 -3 -33 -30 0 -37 -9 -38 -40 -5 -31 33 -92 51 -130 38z"/>
 <path d="M8280 1699 c-40 -16 -60 -40 -60 -73 0 -49 22 -70 117 -111 112 -49 133 -68 133 -115 0 -48 -25 -70 -77 -70 -34 0 -44 5 -72 40 -43 54 -81 52 -67 -4 17 -67 261 -90 281 -25 4 10 1 62 -5 113 -7 52 -11 129 -8 171 l3 76 -35 -3 c-28 -2 -36 -8 -38 -25 -4 -28 -14 -29 -37 -3 -10 11 -34 24 -54 30 -43 12 -49 12 -81 -1z m129 -55 c29 -21 51 -72 51 -119 0 -41 -2 -41 -93 -2 -74 31 -97 77 -57 117 24 24 67 26 99 4z"/>
 <path d="M9090 1699 c-40 -16 -60 -40 -60 -71 0 -51 19 -69 118 -115 120 -56 132 -66 132 -113 0 -48 -24 -70 -77 -70 -34 0 -44 5 -72 40 -43 54 -81 52 -67 -4 17 -67 261 -90 281 -25 4 10 1 62 -5 113 -7 52 -11 129 -8 170 l3 76 -37 0 c-36 0 -38 -2 -38 -32 l0 -32 -28 27 c-26 25 -80 48 -107 46 -5 0 -21 -5 -35 -10z m133 -59 c27 -22 47 -74 47 -123 0 -25 -3 -27 -22 -22 -58 18 -120 50 -133 69 -48 67 40 129 108 76z"/>
 <path d="M9715 1703 c-27 -7 -55 -33 -67 -63 -6 -16 -5 -77 3 -177 l12 -152 29 -7 c16 -3 31 -4 34 -2 2 3 0 47 -6 99 -5 52 -10 122 -10 156 0 55 3 64 27 83 21 17 36 20 63 16 70 -11 98 -80 103 -253 l2 -91 35 -5 c19 -2 36 -3 38 -2 1 1 -5 72 -14 156 -8 85 -14 173 -11 197 l5 42 -34 0 c-31 0 -34 -3 -34 -30 0 -37 -9 -38 -40 -5 -13 14 -40 29 -59 35 -38 10 -44 11 -76 3z"/>
 <path d="M10100 1699 c-42 -17 -60 -40 -60 -76 0 -46 33 -74 132 -115 100 -41 118 -58 118 -108 0 -49 -21 -70 -71 -70 -38 0 -79 26 -79 50 0 5 -10 14 -21 21 -27 14 -54 -9 -45 -38 21 -66 262 -84 281 -22 4 11 1 67 -6 124 -6 57 -9 134 -7 170 l6 66 -37 -3 c-31 -3 -37 -7 -41 -31 l-5 -29 -24 26 c-14 14 -41 30 -60 36 -43 12 -49 12 -81 -1z m123 -50 c33 -15 48 -44 54 -106 6 -55 6 -55 -18 -48 -130 42 -178 96 -129 145 22 22 57 26 93 9z"/>
 <path d="M10493 1695 c-32 -22 -35 -58 -18 -200 19 -162 19 -155 -5 -155 -28 0 -25 -28 3 -32 18 -3 22 -10 25 -48 3 -47 21 -70 54 -70 17 0 18 6 12 60 l-7 60 44 0 c41 1 43 2 25 15 -11 8 -32 15 -46 15 l-27 0 -13 135 c-17 176 -7 202 65 175 24 -9 25 -8 14 11 -10 20 -65 49 -91 49 -8 0 -23 -7 -35 -15z"/>
 <path d="M10802 1701 c-43 -11 -88 -55 -103 -99 -14 -43 -7 -138 14 -178 19 -38 63 -81 102 -102 46 -24 161 -22 205 3 113 66 82 288 -49 355 -45 23 -123 32 -169 21z m159 -57 c36 -35 52 -83 53 -159 0 -95 -46 -155 -119 -155 -66 0 -110 48 -126 136 -18 95 17 182 81 207 29 12 83 -3 111 -29z"/>
 <path d="M3370 1693 c0 -5 4 -24 9 -43 12 -42 41 -388 42 -483 1 -63 2 -67 24 -67 13 0 31 -3 40 -7 15 -5 16 -1 11 33 -15 94 -47 502 -43 537 l5 37 -44 0 c-24 0 -44 -3 -44 -7z"/>
 <path d="M3815 1667 c24 -57 48 -256 49 -395 l1 -133 50 3 c59 4 54 -2 225 267 63 100 117 181 121 181 9 0 34 -276 33 -372 l0 -78 33 0 c18 0 33 2 33 4 0 1 -5 17 -11 34 -6 17 -21 141 -33 274 l-22 243 -29 2 c-29 3 -37 -8 -190 -244 l-160 -247 -8 69 c-4 39 -9 150 -10 247 l-2 178 -47 0 -47 0 14 -33z"/>
 <path d="M4890 1675 c11 -30 30 -215 30 -296 0 -59 7 -69 51 -69 13 0 19 7 19 21 l0 20 30 -21 c41 -29 92 -37 109 -16 23 27 -3 45 -60 43 -32 -1 -53 3 -64 13 -18 19 -34 133 -35 248 l0 82 -45 0 c-43 0 -44 -1 -35 -25z"/>
 <path d="M8625 1683 c12 -30 26 -164 28 -265 2 -79 5 -98 17 -98 8 0 25 -3 38 -6 19 -5 22 -2 22 20 l0 25 36 -24 c72 -49 157 -44 183 10 12 25 13 52 3 170 -6 77 -9 150 -6 163 6 20 3 22 -36 22 l-42 0 6 -42 c3 -24 11 -89 16 -146 13 -129 4 -155 -54 -160 -61 -5 -86 5 -101 42 -17 40 -39 248 -31 282 6 23 4 24 -40 24 -40 0 -45 -2 -39 -17z"/>
 <path d="M9476 1224 c-11 -30 -6 -42 25 -55 28 -11 33 -10 45 6 20 28 18 35 -21 51 -42 17 -42 17 -49 -2z"/>
 <path d="M415 1111 c-33 -9 -85 -30 -115 -46 -78 -42 -190 -156 -229 -232 -56 -111 -61 -154 -61 -510 l0 -323 140 0 140 0 0 333 c0 276 3 343 16 388 43 148 154 279 290 345 102 49 137 49 240 -2 58 -28 98 -57 151 -111 40 -40 75 -73 78 -73 3 0 39 24 81 53 l75 52 -33 28 c-46 39 -163 93 -228 106 -30 6 -152 10 -270 10 -171 -1 -227 -4 -275 -18z"/>
 <path d="M9645 1092 c-89 -56 -80 -130 26 -206 32 -23 58 -44 58 -47 1 -4 -12 -9 -28 -12 -32 -7 -54 -36 -45 -60 3 -8 23 -23 45 -32 45 -21 70 -45 47 -45 -8 0 -24 -10 -36 -23 -52 -55 -31 -141 42 -179 41 -21 52 -22 209 -15 50 2 61 11 25 20 -21 6 -23 11 -20 55 3 43 0 54 -28 85 -17 20 -48 41 -68 47 -104 32 -161 72 -130 92 15 9 76 29 159 52 80 22 109 48 109 96 0 53 -31 86 -130 139 -100 53 -185 65 -235 33z m214 -47 c38 -19 81 -72 81 -99 0 -47 -43 -76 -147 -99 -24 -5 -93 37 -125 77 -36 43 -12 99 52 125 37 15 107 13 139 -4z m16 -400 c44 -43 31 -136 -21 -155 -36 -14 -73 4 -90 45 -17 41 -10 80 19 113 27 29 62 28 92 -3z"/>
 <path d="M639 1040 l-74 -26 -3 -202 -2 -202 155 0 155 0 -2 201 -3 201 -76 28 -75 27 -75 -27z"/>
 <path d="M1304 885 c-23 -23 -32 -25 -114 -25 -73 0 -90 -3 -90 -15 0 -8 5 -15 10 -15 6 0 10 -13 10 -30 l0 -30 220 0 220 0 0 30 c0 17 5 30 10 30 6 0 10 7 10 15 0 12 -17 15 -89 15 -79 0 -90 2 -96 19 -5 16 -32 30 -58 31 -4 0 -19 -11 -33 -25z"/>
 <path d="M2721 860 c-44 -11 -80 -48 -91 -95 -6 -25 -3 -99 7 -204 8 -91 13 -187 10 -213 l-4 -48 63 0 64 0 -11 27 c-15 41 -39 247 -39 345 0 76 3 90 23 113 39 45 126 53 190 16 62 -36 95 -167 100 -397 l2 -104 53 0 c28 0 52 2 52 4 0 3 -4 16 -10 31 -13 34 -40 311 -42 430 l-2 95 -44 0 -44 0 6 -35 c4 -19 4 -35 1 -35 -3 0 -23 13 -46 29 -60 44 -155 60 -238 41z"/>
 <path d="M4273 851 c-73 -33 -103 -135 -72 -244 11 -43 59 -101 98 -121 103 -53 237 -9 229 75 -4 41 -20 46 -160 48 l-96 1 -7 30 c-18 81 29 162 100 176 28 5 50 1 88 -15 28 -11 53 -19 55 -16 10 10 -58 62 -96 73 -55 17 -90 15 -139 -7z m161 -271 c56 -21 18 -90 -50 -90 -48 0 -114 63 -97 93 6 10 117 9 147 -3z"/>
 <path d="M4890 857 c-19 -7 -35 -18 -34 -24 1 -7 2 -22 3 -34 1 -20 3 -19 36 10 74 65 189 21 173 -66 -1 -10 -32 -37 -68 -60 -36 -24 -73 -52 -82 -64 -20 -24 -23 -70 -8 -100 22 -40 103 -63 182 -53 45 6 48 8 48 36 l0 30 -34 -21 c-79 -49 -164 -3 -126 69 5 10 39 36 75 59 84 53 101 78 85 126 -26 80 -151 126 -250 92z"/>
 <path d="M5485 851 c-56 -26 -76 -66 -76 -151 0 -144 78 -219 249 -236 60 -7 60 -7 66 -43 3 -20 6 -64 6 -97 l0 -62 38 -4 c20 -3 38 -4 40 -3 1 1 -2 31 -7 66 -18 113 -42 361 -43 451 l-1 88 -39 0 c-30 0 -38 -4 -38 -19 0 -17 -3 -17 -47 5 -56 29 -94 30 -148 5z m177 -48 c25 -22 36 -70 44 -189 6 -96 6 -102 -14 -113 -60 -32 -153 7 -189 79 -30 58 -31 142 -3 188 36 59 117 76 162 35z"/>
 <path d="M5879 847 c-27 -18 -35 -31 -37 -59 -3 -31 2 -40 30 -63 18 -14 69 -42 113 -61 44 -19 86 -41 94 -48 22 -22 19 -95 -4 -112 -30 -22 -92 -18 -113 8 -51 63 -76 74 -87 37 -9 -26 17 -55 59 -68 57 -18 133 -23 175 -11 53 14 57 31 41 171 -7 60 -10 134 -7 164 l6 55 -34 0 c-27 0 -34 -5 -39 -26 -6 -24 -8 -25 -24 -11 -24 22 -86 47 -115 47 -13 0 -39 -10 -58 -23z m153 -38 c26 -14 48 -68 48 -119 0 -22 -2 -40 -5 -40 -22 0 -135 62 -149 81 -21 31 -20 45 4 69 22 22 70 26 102 9z"/>
 <path d="M6314 851 c-53 -24 -74 -68 -74 -153 1 -139 81 -217 242 -234 63 -6 66 -8 72 -37 3 -16 6 -60 6 -97 l0 -68 38 -4 c20 -3 38 -4 39 -4 1 1 -6 72 -17 157 -11 84 -23 220 -27 302 l-6 147 -32 0 c-24 0 -34 -5 -38 -19 -5 -19 -6 -19 -53 5 -57 29 -95 30 -150 5z m174 -44 c27 -22 40 -71 48 -180 5 -80 4 -110 -6 -122 -19 -22 -88 -19 -134 8 -109 62 -117 256 -13 303 34 15 81 12 105 -9z"/>
 <path d="M7423 859 c-66 -19 -111 -111 -98 -198 14 -90 44 -140 105 -171 78 -39 162 -35 210 10 32 30 41 82 18 96 -7 4 -66 10 -132 13 l-121 6 0 67 c0 56 4 70 24 92 48 51 119 56 190 13 32 -19 33 -19 23 -1 -35 65 -133 98 -219 73z m144 -275 c29 -8 37 -32 18 -60 -18 -27 -54 -39 -91 -30 -32 8 -74 52 -74 77 0 17 8 19 63 19 34 0 72 -3 84 -6z"/>
 <path d="M7833 859 c-104 -30 -143 -174 -77 -286 45 -77 146 -121 246 -108 41 6 48 10 48 29 0 32 -11 39 -31 20 -10 -9 -37 -18 -61 -21 -34 -4 -51 0 -78 19 -97 65 -109 247 -20 293 38 19 103 19 141 -1 40 -20 47 -12 16 20 -40 40 -116 55 -184 35z"/>
 <path d="M8636 860 c-115 -37 -139 -222 -42 -328 57 -63 190 -87 264 -48 66 34 91 127 60 227 -13 46 -68 113 -109 134 -36 19 -135 27 -173 15z m170 -51 c47 -45 69 -175 40 -244 -32 -76 -128 -96 -187 -39 -37 35 -52 91 -47 171 4 67 25 108 69 131 33 18 96 8 125 -19z"/>
 <path d="M9286 860 c-72 -22 -114 -102 -101 -194 16 -126 99 -200 225 -200 77 0 122 20 151 67 17 26 20 44 16 102 -4 77 -23 123 -70 173 -49 51 -147 74 -221 52z m144 -35 c66 -34 99 -173 62 -258 -44 -100 -164 -102 -212 -3 -29 62 -28 171 3 217 38 57 91 73 147 44z"/>
 <path d="M10350 848 c-61 -32 -83 -66 -88 -137 -5 -71 10 -121 51 -167 53 -62 138 -90 229 -78 43 6 44 7 40 40 l-4 34 -31 -26 c-106 -89 -262 88 -203 230 29 70 109 96 191 62 41 -17 45 -9 12 22 -49 46 -130 54 -197 20z"/>
 <path d="M10670 852 c-21 -10 -39 -28 -45 -45 -17 -50 8 -76 124 -133 111 -55 131 -72 131 -116 0 -40 -32 -68 -77 -68 -32 0 -44 6 -74 42 -39 45 -69 47 -69 4 0 -33 39 -56 119 -68 83 -12 148 2 160 35 5 12 2 74 -7 142 -10 85 -12 134 -5 168 l10 47 -39 0 c-34 0 -38 -3 -38 -25 0 -29 -12 -32 -31 -8 -17 20 -71 43 -101 43 -13 0 -39 -8 -58 -18z m155 -54 c17 -16 29 -41 36 -81 7 -31 10 -60 7 -63 -8 -8 -113 34 -142 57 -51 40 -22 109 46 109 15 0 38 -10 53 -22z"/>
 <path d="M3214 838 c11 -36 34 -305 28 -333 -4 -21 -1 -25 21 -25 14 0 32 -3 41 -6 12 -5 16 0 16 21 l0 26 26 -20 c57 -45 144 -50 179 -11 15 17 17 40 14 194 l-4 176 -39 0 -39 0 7 -52 c3 -29 9 -100 13 -158 5 -92 4 -108 -11 -123 -22 -21 -94 -23 -123 -2 -29 20 -45 102 -47 232 l-1 103 -44 0 c-40 0 -43 -2 -37 -22z"/>
 <path d="M3645 833 c11 -44 25 -187 28 -278 l2 -85 38 0 c37 0 38 1 33 28 -11 54 -28 292 -24 326 l4 36 -44 0 c-43 0 -44 -1 -37 -27z"/>
 <path d="M3921 823 c-46 -180 -64 -243 -85 -294 l-24 -59 39 0 c48 0 46 -4 91 183 18 75 36 137 39 137 7 0 79 -159 104 -230 8 -23 15 -53 15 -66 0 -21 5 -24 40 -24 l40 0 -31 53 c-17 28 -62 116 -100 195 -61 126 -72 142 -94 142 -20 0 -26 -7 -34 -37z"/>
 <path d="M4599 843 c11 -22 31 -212 31 -299 0 -56 2 -62 23 -68 37 -10 47 -7 47 14 0 25 8 25 35 0 29 -27 75 -35 100 -17 32 24 4 45 -63 49 -57 3 -57 3 -70 43 -7 21 -16 97 -19 167 l-6 128 -44 0 c-39 0 -43 -2 -34 -17z"/>
 <path d="M5224 843 c12 -31 27 -175 29 -275 l2 -98 38 0 39 0 -6 48 c-16 130 -27 295 -22 317 6 24 4 25 -40 25 -40 0 -45 -2 -40 -17z"/>
 <path d="M7090 853 c0 -5 4 -24 10 -43 12 -42 40 -331 40 -408 l0 -54 -94 4 -94 3 14 -27 15 -28 229 0 c127 0 230 4 230 9 0 16 -54 30 -127 33 -40 2 -75 7 -79 10 -11 12 -35 257 -37 385 l-2 123 -52 0 c-29 0 -53 -3 -53 -7z"/>
 <path d="M8120 830 c13 -45 33 -297 26 -325 -6 -22 -3 -25 18 -25 13 0 31 -3 40 -6 12 -5 16 0 16 20 l0 26 38 -24 c51 -34 100 -41 145 -23 47 20 53 54 39 217 -6 69 -9 136 -5 148 5 20 2 22 -37 22 -42 0 -42 0 -36 -32 13 -76 26 -249 20 -273 -8 -32 -32 -45 -82 -45 -75 0 -101 65 -105 262 l-2 88 -42 0 c-41 0 -42 0 -33 -30z"/>
 <path d="M9004 838 c11 -37 46 -426 46 -505 0 -70 1 -73 24 -73 13 0 32 -3 41 -7 15 -5 16 -1 11 23 -11 57 -48 507 -44 545 l4 39 -44 0 c-41 0 -44 -2 -38 -22z"/>
 <path d="M10079 838 c12 -31 35 -298 29 -337 -4 -30 -3 -31 34 -31 45 0 43 -17 23 188 -8 85 -12 165 -9 178 6 23 4 24 -40 24 -43 0 -45 -1 -37 -22z"/>
 <path d="M1904 762 c-34 -37 -84 -83 -113 -102 -44 -31 -51 -39 -51 -70 -2 -157 -113 -350 -258 -446 -65 -43 -168 -84 -214 -84 -84 0 -286 166 -342 281 -32 66 -56 150 -56 197 l0 32 -141 0 -142 0 7 -42 c32 -209 180 -387 383 -460 40 -15 96 -23 183 -28 69 -4 159 -15 200 -25 54 -12 99 -15 160 -12 145 10 252 57 351 156 112 112 163 241 162 411 -1 67 -7 114 -22 160 -35 110 -36 110 -107 32z"/>
 <path d="M1150 753 c0 -5 20 -75 45 -158 48 -162 64 -188 128 -200 42 -8 100 15 121 47 14 22 96 285 96 308 0 6 -75 10 -195 10 -107 0 -195 -3 -195 -7z"/>
 <path d="M1040 430 c0 -49 1 -50 30 -50 23 0 30 -4 30 -20 0 -16 7 -20 35 -20 28 0 35 -4 35 -20 0 -17 7 -20 40 -20 28 0 40 -4 40 -14 0 -27 50 -56 97 -56 33 0 50 6 68 25 14 13 25 29 25 35 0 5 19 10 41 10 36 0 41 2 36 20 -4 17 0 20 34 20 32 0 39 3 39 20 0 16 7 20 30 20 29 0 30 1 30 50 l0 50 -85 0 c-84 0 -85 0 -100 -30 -47 -92 -193 -92 -240 0 -15 30 -16 30 -100 30 l-85 0 0 -50z"/>
 <path d="M561 368 l-1 -108 -95 0 -95 0 0 -110 0 -110 283 0 282 1 -60 32 c-76 41 -190 149 -234 221 -18 31 -44 84 -57 119 l-23 62 0 -107z"/>
 <path d="M5266 385 c-21 -32 -21 -32 14 -50 39 -20 45 -19 58 9 11 25 9 28 -44 59 -7 4 -19 -4 -28 -18z"/>
 <path d="M9401 340 c46 -63 55 -70 86 -70 29 0 32 2 24 18 -18 32 -86 91 -123 107 l-38 15 51 -70z"/>
 <path d="M10117 381 c-16 -28 -16 -28 18 -47 34 -18 35 -18 49 1 20 26 16 36 -20 57 -30 17 -30 17 -47 -11z"/>
 <path d="M3680 381 c-14 -27 -14 -29 21 -46 24 -13 34 -14 45 -4 22 18 17 45 -11 57 -35 16 -43 15 -55 -7z"/>
 <path d="M1040 252 c0 -15 126 -122 143 -122 4 0 7 29 7 65 l0 65 -75 0 c-41 0 -75 -4 -75 -8z"/>
 </g>

</svg>